<svg viewBox="0 0 20 20" xmlns="http://www.w3.org/2000/svg" xmlns:xlink="http://www.w3.org/1999/xlink" width="20.000000" height="20.000000" fill="none">
	<rect id="clarity:data-cluster-line" width="20.000000" height="20.000000" x="0.000000" y="0.000000" fill="rgb(255,255,255)" fill-opacity="0" />
	<path id="Vector" d="M14.7222 2.2666C12.65 2.2666 10.5555 2.99993 10.5555 4.39438L10.5555 5.27771C10.9276 5.29486 11.2985 5.33195 11.6667 5.38882L11.6667 4.39438C11.6667 4.03327 12.8278 3.37216 14.7222 3.37216C16.6167 3.37216 17.7778 4.03882 17.7778 4.39438L17.7778 10.1333C17.7778 10.4333 16.9667 10.9333 15.6111 11.0944L15.6111 12.2055C17.35 12.0277 18.8889 11.3166 18.8889 10.1222L18.8889 4.39438C18.8889 2.99993 16.7944 2.2666 14.7222 2.2666Z" fill="rgb(18,18,18)" fill-rule="nonzero" />
	<path id="Vector" d="M2.2222 10.1335L2.2222 4.39456C2.2222 4.03345 3.38331 3.37234 5.27775 3.37234C7.1722 3.37234 8.33331 4.03901 8.33331 4.39456L8.33331 5.38901C8.70142 5.33213 9.07233 5.29504 9.44442 5.2779L9.44442 4.39456C9.44442 2.99456 7.34997 2.26123 5.27775 2.26123C3.20553 2.26123 1.11108 3.00012 1.11108 4.39456L1.11108 10.1335C1.11108 11.3335 2.64997 12.039 4.38886 12.2223L4.38886 11.1112C3.03331 10.9335 2.2222 10.4335 2.2222 10.1335Z" fill="rgb(18,18,18)" fill-rule="nonzero" />
	<path id="Vector" d="M10.0002 6.02783C7.26131 6.02783 5.19464 7.07228 5.19464 8.46117L5.19464 15.3001C5.19464 16.6889 7.26131 17.7334 10.0002 17.7334C12.7391 17.7334 14.8058 16.6889 14.8058 15.3001L14.8058 8.46117C14.8058 7.07228 12.7391 6.02783 10.0002 6.02783ZM13.6946 10.2889C13.2224 10.8445 11.7946 11.4001 10.0002 11.4001C9.24961 11.4078 8.50162 11.3106 7.77797 11.1112L7.77797 11.9223C8.5051 12.1007 9.25152 12.1884 10.0002 12.1834C11.2876 12.2356 12.5648 11.936 13.6946 11.3167L13.6946 13.0501C13.2224 13.6056 11.7946 14.1612 10.0002 14.1612C9.24935 14.1671 8.50136 14.068 7.77797 13.8667L7.77797 14.6778C8.5051 14.8562 9.25152 14.9439 10.0002 14.9389C11.2876 14.9912 12.5648 14.6915 13.6946 14.0723L13.6946 15.3445C13.6946 15.8723 12.2224 16.6667 10.0002 16.6667C7.77797 16.6667 6.30575 15.8723 6.30575 15.3445L6.30575 8.46117C6.30575 7.93339 7.77797 7.13894 10.0002 7.13894C12.2224 7.13894 13.6946 7.93339 13.6946 8.46117L13.6946 10.2889Z" fill="rgb(18,18,18)" fill-rule="nonzero" />
</svg>
