<svg viewBox="0 0 20 20" xmlns="http://www.w3.org/2000/svg" xmlns:xlink="http://www.w3.org/1999/xlink" width="20.000000" height="20.000000" fill="none">
	<rect id="clarity:close-line" width="20.000000" height="20.000000" x="0.000000" y="0.000000" fill="rgb(255,255,255)" fill-opacity="0" />
	<path id="Vector" d="M10.7833 9.99972L15.3889 5.39417C15.4799 5.28789 15.5275 5.15118 15.5221 5.01136C15.5167 4.87154 15.4587 4.73891 15.3598 4.63997C15.2608 4.54102 15.1282 4.48306 14.9884 4.47766C14.8486 4.47226 14.7118 4.51982 14.6056 4.61083L10 9.21639L5.39446 4.60528C5.28984 4.50067 5.14796 4.44189 5.00001 4.44189C4.85207 4.44189 4.71018 4.50067 4.60557 4.60528C4.50095 4.70989 4.44218 4.85178 4.44218 4.99972C4.44218 5.14767 4.50095 5.28955 4.60557 5.39417L9.21668 9.99972L4.60557 14.6053C4.54741 14.6551 4.50018 14.7164 4.46683 14.7853C4.43349 14.8542 4.41475 14.9293 4.41179 15.0058C4.40884 15.0823 4.42173 15.1586 4.44966 15.2299C4.47759 15.3012 4.51995 15.3659 4.5741 15.4201C4.62824 15.4742 4.69299 15.5166 4.76428 15.5445C4.83557 15.5724 4.91186 15.5853 4.98838 15.5824C5.06489 15.5794 5.13996 15.5607 5.20888 15.5273C5.27781 15.494 5.3391 15.4468 5.3889 15.3886L10 10.7831L14.6056 15.3886C14.7118 15.4796 14.8486 15.5272 14.9884 15.5218C15.1282 15.5164 15.2608 15.4584 15.3598 15.3595C15.4587 15.2605 15.5167 15.1279 15.5221 14.9881C15.5275 14.8483 15.4799 14.7116 15.3889 14.6053L10.7833 9.99972Z" fill="rgb(255,253,245)" fill-rule="nonzero" />
</svg>
