<svg viewBox="0 0 20 20" xmlns="http://www.w3.org/2000/svg" xmlns:xlink="http://www.w3.org/1999/xlink" width="20.000000" height="20.000000" fill="none">
	<rect id="clarity:eye-line" width="20.000000" height="20.000000" x="0.000000" y="0.000000" fill="rgb(255,255,255)" fill-opacity="0" />
	<path id="Vector" d="M18.6779 9.73866C16.8057 6.27755 13.5224 4.18311 9.88902 4.18311C6.25569 4.18311 2.9668 6.27755 1.11124 9.73866L0.955688 9.99977L1.10013 10.2664C2.97236 13.7275 6.25569 15.822 9.88902 15.822C13.5224 15.822 16.8112 13.7553 18.6779 10.2664L18.8224 9.99977L18.6779 9.73866ZM9.88902 14.6831C6.76124 14.6831 3.88902 12.9387 2.22236 9.99977C3.88902 7.06088 6.76124 5.31644 9.88902 5.31644C13.0168 5.31644 15.8557 7.06644 17.5501 9.99977C15.8557 12.9387 13.0112 14.6831 9.88902 14.6831Z" fill="rgb(18,18,18)" fill-rule="nonzero" />
	<path id="Vector" d="M10.0499 6.20567C9.29663 6.21117 8.56189 6.43977 7.93847 6.8626C7.31505 7.28544 6.83091 7.88353 6.54721 8.58136C6.26352 9.27918 6.19298 10.0454 6.34451 10.7833C6.49604 11.5212 6.86284 12.1976 7.39859 12.7272C7.93433 13.2567 8.61499 13.6156 9.3546 13.7586C10.0942 13.9015 10.8596 13.822 11.554 13.5302C12.2485 13.2384 12.8409 12.7474 13.2565 12.1191C13.672 11.4907 13.8921 10.7534 13.8888 10.0001C13.8866 9.49869 13.7855 9.00262 13.5913 8.54035C13.397 8.07807 13.1135 7.65866 12.7568 7.30617C12.4002 6.95368 11.9775 6.67502 11.513 6.48618C11.0485 6.29733 10.5513 6.20201 10.0499 6.20567ZM10.0499 12.7168C9.51782 12.7113 8.99922 12.5487 8.55924 12.2495C8.11926 11.9502 7.77751 11.5276 7.57692 11.0347C7.37633 10.5419 7.32584 10.0008 7.4318 9.47931C7.53775 8.95785 7.79542 8.47933 8.17244 8.10384C8.54947 7.72835 9.02904 7.47264 9.55092 7.36882C10.0728 7.26499 10.6137 7.31769 11.1058 7.52029C11.5978 7.72289 12.019 8.06636 12.3164 8.50756C12.6139 8.94876 12.7744 9.46801 12.7777 10.0001C12.7792 10.3582 12.7095 10.7131 12.5728 11.0441C12.4361 11.3751 12.2351 11.6756 11.9814 11.9283C11.7276 12.181 11.4262 12.3809 11.0947 12.5162C10.7631 12.6515 10.408 12.7197 10.0499 12.7168Z" fill="rgb(18,18,18)" fill-rule="nonzero" />
</svg>
