<svg viewBox="0 0 20 20" xmlns="http://www.w3.org/2000/svg" xmlns:xlink="http://www.w3.org/1999/xlink" width="20.000000" height="20.000000" fill="none">
	<rect id="clarity:login-line" width="20.000000" height="20.000000" x="0.000000" y="0.000000" fill="rgb(255,255,255)" fill-opacity="0" transform="matrix(-1,0,0,1,20,0)" />
	<path id="Vector" d="M10 0L1.11111 0C0.816426 4.93432e-16 0.533811 0.117063 0.325437 0.325437C0.117063 0.533811 0 0.816426 0 1.11111L10 1.11111L10 14.4444L1.11111 14.4444L1.11111 9L0 9L0 14.4444C0 14.7391 0.117063 15.0217 0.325437 15.2301C0.533811 15.4385 0.816426 15.5556 1.11111 15.5556L10 15.5556C10.2947 15.5556 10.5773 15.4385 10.7857 15.2301C10.994 15.0217 11.1111 14.7391 11.1111 14.4444L11.1111 1.11111C11.1111 0.816426 10.994 0.533811 10.7857 0.325437C10.5773 0.117063 10.2947 7.40149e-16 10 0Z" fill="rgb(18,18,18)" fill-rule="nonzero" transform="matrix(-1,0,0,1,14.4445,2.22217)" />
	<path id="Vector" d="M6.73333 5.78359C6.67518 5.83339 6.62794 5.89468 6.5946 5.9636C6.56125 6.03253 6.54251 6.1076 6.53956 6.18411C6.5366 6.26062 6.54949 6.33692 6.57742 6.40821C6.60535 6.4795 6.64772 6.54425 6.70186 6.59839C6.756 6.65253 6.82075 6.6949 6.89204 6.72283C6.96333 6.75076 7.03963 6.76365 7.11614 6.7607C7.19265 6.75774 7.26772 6.739 7.33665 6.70566C7.40557 6.67231 7.46686 6.62508 7.51667 6.56692L10.7333 3.35025L7.52222 0.133587C7.41594 0.0425723 7.27923 -0.00498632 7.13941 0.000414325C6.99959 0.00581497 6.86696 0.0637771 6.76802 0.162719C6.66908 0.26166 6.61112 0.394293 6.60572 0.534113C6.60032 0.673933 6.64787 0.810642 6.73889 0.91692L8.61111 2.75025L0.555556 2.75025C0.408213 2.75025 0.266905 2.80879 0.162718 2.91297C0.0585316 3.01716 4.93432e-16 3.15847 0 3.30581C4.93432e-16 3.45315 0.0585316 3.59446 0.162718 3.69865C0.266905 3.80283 0.408213 3.86136 0.555556 3.86136L8.61111 3.86136L6.73333 5.78359Z" fill="rgb(18,18,18)" fill-rule="nonzero" transform="matrix(-1,0,0,1,18.3333,4.47217)" />
</svg>
