<svg viewBox="0 0 20 20" xmlns="http://www.w3.org/2000/svg" xmlns:xlink="http://www.w3.org/1999/xlink" width="20.000000" height="20.000000" fill="none">
	<rect id="clarity:file-line" width="20.000000" height="20.000000" x="0.000000" y="0.000000" fill="rgb(255,255,255)" fill-opacity="0" />
	<path id="Vector" d="M12.161 2.22217L4.34987 2.22217C4.0748 2.22945 3.81372 2.34499 3.62335 2.54368C3.43299 2.74236 3.32872 3.00815 3.33321 3.28328L3.33321 16.7166C3.32872 16.9917 3.43299 17.2575 3.62335 17.4562C3.81372 17.6549 4.0748 17.7704 4.34987 17.7777L15.6499 17.7777C15.9249 17.7704 16.186 17.6549 16.3764 17.4562C16.5668 17.2575 16.671 16.9917 16.6665 16.7166L16.6665 6.62217L12.161 2.22217ZM11.9943 3.6055L15.3277 6.88328L11.9943 6.88328L11.9943 3.6055ZM4.44432 16.6666L4.44432 3.33328L11.111 3.33328L11.111 7.77772L15.5554 7.77772L15.5554 16.6666L4.44432 16.6666Z" fill="rgb(18,18,18)" fill-rule="nonzero" />
</svg>
